<svg width="64" height="50" viewBox="0 0 64 50" fill="none" xmlns="http://www.w3.org/2000/svg">
<g clip-path="url(#clip0_6_6)">
<path d="M15.624 13.224C15.624 12.7547 15.5813 12.2853 15.496 11.816C15.4533 11.304 15.3253 10.856 15.112 10.472C14.9413 10.0453 14.664 9.704 14.28 9.448C13.9387 9.192 13.448 9.064 12.808 9.064C11.9973 9.064 11.3147 9.32 10.76 9.832C10.504 9.14933 10.376 8.53067 10.376 7.976C10.376 7.29333 10.4827 6.632 10.696 5.992C10.952 5.30933 11.336 4.712 11.848 4.2C12.36 3.688 13 3.28267 13.768 2.984C14.5787 2.64266 15.56 2.472 16.712 2.472C19.272 2.472 21.256 3.24 22.664 4.776C24.072 6.312 24.776 8.424 24.776 11.112V41C24.776 42.792 24.52 44.2213 24.008 45.288C23.496 46.3547 22.792 47.1653 21.896 47.72C21.0427 48.232 20.0613 48.5733 18.952 48.744C17.8853 48.9147 16.776 49 15.624 49V13.224ZM9.35201 38.184C9.35201 38.6533 9.37334 39.144 9.41601 39.656C9.50134 40.1253 9.62934 40.5733 9.80001 41C10.0133 41.384 10.2907 41.704 10.632 41.96C11.016 42.216 11.528 42.344 12.168 42.344C12.936 42.344 13.6187 42.088 14.216 41.576C14.344 41.9173 14.4293 42.2373 14.472 42.536C14.5573 42.792 14.6 43.0907 14.6 43.432C14.6 44.1147 14.472 44.7973 14.216 45.48C14.0027 46.12 13.64 46.696 13.128 47.208C12.616 47.72 11.9547 48.1467 11.144 48.488C10.376 48.7867 9.41601 48.936 8.26401 48.936C5.70401 48.936 3.72001 48.168 2.31201 46.632C0.904012 45.096 0.200012 42.984 0.200012 40.296V10.408C0.200012 8.616 0.456012 7.18666 0.968012 6.12C1.48001 5.05333 2.16268 4.264 3.01601 3.752C3.91201 3.19733 4.89334 2.83466 5.96001 2.664C7.06934 2.49333 8.20001 2.408 9.35201 2.408V38.184ZM33.76 6.632C33.76 5.18133 34.272 3.96533 35.296 2.984C36.32 1.96 37.536 1.448 38.944 1.448C40.352 1.448 41.5467 1.96 42.528 2.984C43.552 3.96533 44.064 5.18133 44.064 6.632C44.064 8.08266 43.552 9.29867 42.528 10.28C41.5467 11.2613 40.352 11.752 38.944 11.752C37.536 11.752 36.32 11.2613 35.296 10.28C34.272 9.29867 33.76 8.08266 33.76 6.632ZM34.72 16.488H35.424C37.6427 16.488 39.4987 17.0853 40.992 18.28C42.528 19.4747 43.296 21.3733 43.296 23.976V49H42.912C41.9307 49 40.9493 48.872 39.968 48.616C39.0293 48.36 38.1547 47.9547 37.344 47.4C36.576 46.8027 35.936 46.056 35.424 45.16C34.9547 44.2213 34.72 43.0693 34.72 41.704V16.488ZM62.566 34.088H61.99C61.0087 34.088 60.0487 33.9387 59.11 33.64C58.1713 33.3413 57.318 32.8933 56.55 32.296C55.782 31.6987 55.1633 30.9307 54.694 29.992C54.2247 29.0533 53.99 27.944 53.99 26.664V0.872002C55.142 0.872002 56.23 1.064 57.254 1.448C58.278 1.78933 59.174 2.30133 59.942 2.984C60.7527 3.624 61.3927 4.41333 61.862 5.352C62.3313 6.29066 62.566 7.35733 62.566 8.552V34.088ZM54.246 44.776C54.246 43.4533 54.694 42.344 55.59 41.448C56.486 40.552 57.5527 40.104 58.79 40.104C60.1127 40.104 61.222 40.552 62.118 41.448C63.014 42.344 63.462 43.4533 63.462 44.776C63.462 46.0133 63.014 47.08 62.118 47.976C61.222 48.872 60.1127 49.32 58.79 49.32C57.5527 49.32 56.486 48.872 55.59 47.976C54.694 47.08 54.246 46.0133 54.246 44.776Z" fill="#282828"/>
</g>
<defs>
<clipPath id="clip0_6_6">
<rect width="64" height="50" fill="white"/>
</clipPath>
</defs>
</svg>
